<?xml version="1.0" encoding="UTF-8" standalone="no"?>
<!DOCTYPE svg PUBLIC "-//W3C//DTD SVG 1.1//EN" "http://www.w3.org/Graphics/SVG/1.1/DTD/svg11.dtd">
<svg width="100%" height="100%" viewBox="0 0 8027 8027" version="1.1" xmlns="http://www.w3.org/2000/svg" xmlns:xlink="http://www.w3.org/1999/xlink" xml:space="preserve" style="fill-rule:evenodd;clip-rule:evenodd;stroke-linejoin:round;stroke-miterlimit:1.41421;">
    <g transform="matrix(1,0,0,1,-23001.7,-30270.6)">
        <g transform="matrix(1.16112,0,0,1.84231,5459.84,19884.4)">
            <g transform="matrix(0.882718,0,0,0.556336,-5198.35,-11640.5)">
                <rect x="23004" y="31057" width="7830.73" height="7830.73" style="fill:none;"/>
            </g>
            <g transform="matrix(1,0,0,1,-9.09495e-13,-4986.05)">
                <g transform="matrix(0.861237,0,0,0.542798,-4664.45,-5908.06)">
                    <path d="M28079.7,33144.7C28254.2,32942.6 29054.6,32011.9 29693.2,31220.1C29791.4,31098.4 30012.6,31026.1 30233,31103.9C30380.5,31155.9 30479,31295.3 30479,31451.6L30479,36124.1C30479,36543.2 30209.6,36914.9 29811.2,37045.3C29174,37253.9 28221.7,37565.6 27601.1,37768.7C27198.7,37900.4 26764.8,37900.4 26362.4,37768.7C25741.7,37565.6 24789.5,37253.9 24152.2,37045.3C23753.8,36914.9 23484.4,36543.2 23484.4,36124.1C23484.4,34899.8 23484.4,33144.7 23484.4,33144.7L23484.4,31451.6C23484.4,31295.3 23583,31155.9 23730.4,31103.9C23950.9,31026.1 24172.1,31098.4 24270.2,31220.1C24908.8,32011.9 25709.3,32942.6 25883.7,33144.7C25883.7,33144.7 26630.9,33106.8 26910.6,33092.6C26980,33089.1 27049.4,33089.2 27118.8,33092.9C27386.7,33107.4 28079.7,33144.7 28079.7,33144.7Z" style="fill:rgb(158, 236, 255);"/>
                </g>
                <g transform="matrix(0.978225,0,0,0.978225,404.235,287.132)">
                    <g transform="matrix(1,0,0,1,-26.1251,702.392)">
                        <g transform="matrix(1.09434,0,0,0.642705,-11565.9,-9042.9)">
                            <path d="M27196.6,33295.1C27057.2,32736.6 26585.5,32348.2 26046.7,32348.2C25995.8,32348.2 25945.1,32348.2 25895.5,32348.2C25722.5,32348.2 25556.6,32421.9 25434.2,32553.2C25311.9,32684.5 25243.2,32862.5 25243.2,33048.2C25243.2,33048.2 25243.2,33048.2 25243.2,33048.2C25243.2,33233.8 25311.9,33411.9 25434.2,33543.1C25556.6,33674.4 25722.5,33748.2 25895.5,33748.2C26340,33748.2 26893.9,33748.2 27157.1,33748.2C27193.5,33748.2 27227.8,33730 27250,33699C27272.1,33668 27279.6,33627.8 27270.2,33590C27250.4,33510.9 27224.7,33407.9 27196.6,33295.1Z" style="fill:white;"/>
                        </g>
                        <g transform="matrix(-1.09434,0,0,0.642705,48689.1,-9042.9)">
                            <path d="M27196.6,33295.1C27057.2,32736.6 26585.5,32348.2 26046.7,32348.2C25995.8,32348.2 25945.1,32348.2 25895.5,32348.2C25722.5,32348.2 25556.6,32421.9 25434.2,32553.2C25311.9,32684.5 25243.2,32862.5 25243.2,33048.2C25243.2,33048.2 25243.2,33048.2 25243.2,33048.2C25243.2,33233.8 25311.9,33411.9 25434.2,33543.1C25556.6,33674.4 25722.5,33748.2 25895.5,33748.2C26340,33748.2 26893.9,33748.2 27157.1,33748.2C27193.5,33748.2 27227.8,33730 27250,33699C27272.1,33668 27279.6,33627.8 27270.2,33590C27250.4,33510.9 27224.7,33407.9 27196.6,33295.1Z" style="fill:white;"/>
                        </g>
                    </g>
                    <g transform="matrix(1,0,0,1,-71.5377,702.392)">
                        <g transform="matrix(0.630906,-0.369485,0.586248,0.397631,-18436.6,8263.59)">
                            <path d="M25570.6,33417.3C25557.9,33582.3 25419.8,33712.5 25251.6,33712.5C25074.9,33712.5 24931.6,33569.1 24931.6,33392.5C24931.6,33215.9 25074.9,33072.5 25251.6,33072.5C25419.8,33072.5 25557.9,33202.6 25570.6,33367.7C25561.7,33351.1 25544.2,33339.8 25524.1,33339.8C25495,33339.8 25471.4,33363.4 25471.4,33392.5C25471.4,33421.6 25495,33445.2 25524.1,33445.2C25544.2,33445.2 25561.7,33433.9 25570.6,33417.3Z"/>
                        </g>
                        <g transform="matrix(0.630906,-0.369485,0.586248,0.397631,-15364.8,8263.59)">
                            <path d="M25570.6,33417.3C25557.9,33582.3 25419.8,33712.5 25251.6,33712.5C25074.9,33712.5 24931.6,33569.1 24931.6,33392.5C24931.6,33215.9 25074.9,33072.5 25251.6,33072.5C25419.8,33072.5 25557.9,33202.6 25570.6,33367.7C25561.7,33351.1 25544.2,33339.8 25524.1,33339.8C25495,33339.8 25471.4,33363.4 25471.4,33392.5C25471.4,33421.6 25495,33445.2 25524.1,33445.2C25544.2,33445.2 25561.7,33433.9 25570.6,33417.3Z"/>
                        </g>
                    </g>
                    <g transform="matrix(0.77654,0,0,0.489417,-2375.93,-3391.88)">
                        <path d="M27318,34020.5C27416.7,34020.5 27496.6,34100.4 27496.6,34199.1C27496.6,34221.1 27496.6,34243.6 27496.6,34265.6C27496.6,34364.2 27416.7,34444.2 27318,34444.2C27318,34444.2 27218,34444.2 27148.6,34444.2C27131.3,34444.2 27114.7,34451.1 27102.4,34463.3C27090.2,34475.5 27083.3,34492.2 27083.3,34509.5C27083.3,34534.8 27083.3,34557.8 27083.3,34557.8C27083.3,34578.3 27075.1,34598 27060.6,34612.5C27046.1,34627 27026.4,34635.2 27005.9,34635.2C26980,34635.2 26951,34635.2 26925,34635.2C26904.5,34635.2 26884.9,34627 26870.4,34612.5C26855.8,34598 26847.7,34578.3 26847.7,34557.8C26847.7,34557.8 26847.7,34534.8 26847.7,34509.5C26847.7,34492.2 26840.8,34475.5 26828.6,34463.3C26816.3,34451.1 26799.7,34444.2 26782.4,34444.2C26712.9,34444.2 26613,34444.2 26613,34444.2C26514.3,34444.2 26434.4,34364.2 26434.4,34265.6C26434.4,34243.6 26434.4,34221.1 26434.4,34199.1C26434.4,34100.4 26514.3,34020.5 26613,34020.5L27318,34020.5Z" style="fill:rgb(255,51,141);"/>
                    </g>
                    <g transform="matrix(1,0,0,1,-3.55111,702.392)">
                        <g transform="matrix(0.861237,0,0,0.542798,-4702.22,-5913.79)">
                            <circle cx="26733.7" cy="34212.5" r="37.798" style="fill:rgb(135,19,43);"/>
                        </g>
                        <g transform="matrix(0.861237,0,0,0.542798,-4211.03,-5913.79)">
                            <circle cx="26733.7" cy="34212.5" r="37.798" style="fill:rgb(135,19,43);"/>
                        </g>
                    </g>
                    <g transform="matrix(0.458279,0,0,0.288832,6186.71,3569.35)">
                        <path d="M26959.8,34574.7L26959.8,34574.5L27056.1,34574.5C27056.1,35222.5 27581.4,35747.8 28229.4,35747.8C28655.2,35747.8 29047.5,35517.2 29254.6,35145.2L29338.8,35192C29114.7,35594.6 28690.1,35844.1 28229.4,35844.1C27648.7,35844.1 27159,35454.2 27007.9,34921.9C26856.9,35454.3 26367.1,35844.4 25786.3,35844.4C25325.6,35844.4 24901,35594.8 24677,35192.2L24761.1,35145.4C24968.2,35517.4 25360.6,35748 25786.3,35748C26434.3,35748 26959.6,35222.7 26959.6,34574.7L26959.8,34574.7Z"/>
                    </g>
                    <g transform="matrix(1,0,0,1,-10.7035,23.3403)">
                        <g>
                            <g transform="matrix(0.572727,-0.0510076,0.0710646,0.285771,2526.61,3766.98)">
                                <path d="M29198.1,38479C29198.1,38445.4 29176.6,38418.3 29149.9,38418.3C28699.6,38418.3 25233.8,38418.3 24784,38418.3C24771.4,38418.3 24759.1,38424.7 24750.1,38436.1C24741.1,38447.5 24736,38462.9 24736,38478.9C24736,38478.9 24736,38478.9 24736,38478.9C24736,38512.6 24757.4,38539.6 24784.2,38539.6C25234.5,38539.6 28700.3,38539.6 29150,38539.6C29162.7,38539.6 29174.9,38533.2 29184,38521.8C29193,38510.4 29198.1,38495 29198.1,38479C29198.1,38479 29198.1,38479 29198.1,38479Z"/>
                            </g>
                            <g transform="matrix(0.578969,-0.00520814,0.00725606,0.288885,4837.22,2561.6)">
                                <path d="M29198.1,38479.1C29198.1,38445.5 29176.5,38418.3 29150,38418.3C28699.8,38418.3 25233,38418.3 24783.9,38418.3C24771.2,38418.3 24759,38424.7 24750,38436.1C24741,38447.4 24736,38462.8 24736,38478.8C24736,38478.8 24736,38478.8 24736,38478.8C24736,38512.4 24757.5,38539.6 24784.1,38539.6C25234.3,38539.6 28701.1,38539.6 29150.2,38539.6C29162.9,38539.6 29175.1,38533.2 29184,38521.9C29193,38510.5 29198.1,38495.1 29198.1,38479.1C29198.1,38479.1 29198.1,38479.1 29198.1,38479.1Z"/>
                            </g>
                            <g transform="matrix(0.57503,0.0406829,-0.0566801,0.28692,7389.24,1553.65)">
                                <path d="M29198.1,38478.8C29198.1,38462.9 29193,38447.5 29184,38436.1C29175,38424.7 29162.8,38418.3 29150.1,38418.3C28700.7,38418.3 25234.5,38418.3 24784.2,38418.3C24757.5,38418.3 24736,38445.4 24736,38479.1C24736,38479.1 24736,38479.1 24736,38479.1C24736,38495.1 24741.1,38510.5 24750.1,38521.8C24759.1,38533.2 24771.3,38539.6 24783.9,38539.6C25233.4,38539.6 28699.6,38539.6 29149.9,38539.6C29176.6,38539.6 29198.1,38512.5 29198.1,38478.8C29198.1,38478.8 29198.1,38478.8 29198.1,38478.8Z"/>
                            </g>
                        </g>
                        <g transform="matrix(-1,0,0,1,37149.1,0)">
                            <g transform="matrix(0.572727,-0.0510076,0.0710646,0.285771,2526.61,3766.98)">
                                <path d="M29198.1,38479C29198.1,38445.4 29176.6,38418.3 29149.9,38418.3C28699.6,38418.3 25233.8,38418.3 24784,38418.3C24771.4,38418.3 24759.1,38424.7 24750.1,38436.1C24741.1,38447.5 24736,38462.9 24736,38478.9C24736,38478.9 24736,38478.9 24736,38478.9C24736,38512.6 24757.4,38539.6 24784.2,38539.6C25234.5,38539.6 28700.3,38539.6 29150,38539.6C29162.7,38539.6 29174.9,38533.2 29184,38521.8C29193,38510.4 29198.1,38495 29198.1,38479C29198.1,38479 29198.1,38479 29198.1,38479Z"/>
                            </g>
                            <g transform="matrix(0.578969,-0.00520814,0.00725606,0.288885,4837.22,2561.6)">
                                <path d="M29198.1,38479.1C29198.1,38445.5 29176.5,38418.3 29150,38418.3C28699.8,38418.3 25233,38418.3 24783.9,38418.3C24771.2,38418.3 24759,38424.7 24750,38436.1C24741,38447.4 24736,38462.8 24736,38478.8C24736,38478.8 24736,38478.8 24736,38478.8C24736,38512.4 24757.5,38539.6 24784.1,38539.6C25234.3,38539.6 28701.1,38539.6 29150.2,38539.6C29162.9,38539.6 29175.1,38533.2 29184,38521.9C29193,38510.5 29198.1,38495.1 29198.1,38479.1C29198.1,38479.1 29198.1,38479.1 29198.1,38479.1Z"/>
                            </g>
                            <g transform="matrix(0.57503,0.0406829,-0.0566801,0.28692,7389.24,1553.65)">
                                <path d="M29198.1,38478.8C29198.1,38462.9 29193,38447.5 29184,38436.1C29175,38424.7 29162.8,38418.3 29150.1,38418.3C28700.7,38418.3 25234.5,38418.3 24784.2,38418.3C24757.5,38418.3 24736,38445.4 24736,38479.1C24736,38479.1 24736,38479.1 24736,38479.1C24736,38495.1 24741.1,38510.5 24750.1,38521.8C24759.1,38533.2 24771.3,38539.6 24783.9,38539.6C25233.4,38539.6 28699.6,38539.6 29149.9,38539.6C29176.6,38539.6 29198.1,38512.5 29198.1,38478.8C29198.1,38478.8 29198.1,38478.8 29198.1,38478.8Z"/>
                            </g>
                        </g>
                    </g>
                </g>
                <g>
                    <g transform="matrix(0.564452,0,0,0.571789,2457.06,-6729.78)">
                        <path d="M23484.4,31482.5C23484.4,31370.6 23597.8,31270.8 23767.4,31233.6C23937,31196.3 24126,31229.6 24238.9,31316.8C24868.4,31802.4 25720.9,32460 26095.1,32748.7C26130,32775.6 26136.9,32812.5 26112.9,32843.7C26089,32874.9 26038.4,32894.7 25982.9,32894.7C25433.1,32894.7 24276.5,32894.7 23752.5,32894.7C23681.4,32894.7 23613.2,32877.1 23562.9,32845.9C23512.6,32814.6 23484.4,32772.1 23484.4,32727.9C23484.4,32463.1 23484.4,31930.5 23484.4,31482.5Z" style="fill:rgb(255,51,141);"/>
                    </g>
                    <g transform="matrix(-0.564452,0,0,0.571789,34613.8,-6729.78)">
                        <path d="M23484.4,31482.5C23484.4,31370.6 23597.8,31270.8 23767.4,31233.6C23937,31196.3 24126,31229.6 24238.9,31316.8C24868.4,31802.4 25720.9,32460 26095.1,32748.7C26130,32775.6 26136.9,32812.5 26112.9,32843.7C26089,32874.9 26038.4,32894.7 25982.9,32894.7C25433.1,32894.7 24276.5,32894.7 23752.5,32894.7C23681.4,32894.7 23613.2,32877.1 23562.9,32845.9C23512.6,32814.6 23484.4,32772.1 23484.4,32727.9C23484.4,32463.1 23484.4,31930.5 23484.4,31482.5Z" style="fill:rgb(255,51,141);"/>
                    </g>
                </g>
            </g>
        </g>
    </g>
</svg>
